<svg xmlns="http://www.w3.org/2000/svg" xmlns:xlink="http://www.w3.org/1999/xlink" width="500" zoomAndPan="magnify" viewBox="0 0 375 374.999991" height="500" preserveAspectRatio="xMidYMid meet" version="1.0"><path fill="#ffffff" d="M 176.261719 185.164062 L 170.148438 223.289062 L 203.796875 223.289062 L 196.632812 185.164062 L 176.261719 185.164062 " fill-opacity="1" fill-rule="nonzero"/><path fill="#4c44cb" d="M 176.261719 185.164062 L 175.214844 184.996094 L 169.101562 223.121094 C 169.054688 223.425781 169.140625 223.738281 169.34375 223.972656 C 169.542969 224.210938 169.835938 224.347656 170.148438 224.347656 L 203.796875 224.347656 C 204.113281 224.347656 204.410156 224.207031 204.613281 223.960938 C 204.8125 223.722656 204.894531 223.402344 204.839844 223.089844 L 197.675781 184.96875 C 197.578125 184.46875 197.140625 184.105469 196.632812 184.105469 L 176.261719 184.105469 C 175.742188 184.105469 175.296875 184.484375 175.214844 184.996094 L 176.261719 185.164062 L 176.261719 186.222656 L 195.753906 186.222656 L 202.523438 222.230469 L 171.390625 222.230469 L 177.304688 185.332031 L 176.261719 185.164062 L 176.261719 186.222656 L 176.261719 185.164062 " fill-opacity="1" fill-rule="nonzero"/><path fill="#ffffff" d="M 180.769531 185.164062 L 177.230469 223.289062 L 196.71875 223.289062 L 192.566406 185.164062 L 180.769531 185.164062 " fill-opacity="1" fill-rule="nonzero"/><path fill="#4c44cb" d="M 180.769531 185.164062 L 179.71875 185.066406 L 176.175781 223.191406 C 176.152344 223.488281 176.246094 223.78125 176.449219 224 C 176.648438 224.21875 176.929688 224.347656 177.230469 224.347656 L 196.71875 224.347656 C 197.019531 224.347656 197.304688 224.21875 197.503906 223.996094 C 197.707031 223.769531 197.800781 223.472656 197.769531 223.171875 L 193.621094 185.050781 C 193.5625 184.515625 193.105469 184.105469 192.566406 184.105469 L 180.769531 184.105469 C 180.226562 184.105469 179.765625 184.523438 179.71875 185.066406 L 180.769531 185.164062 L 180.769531 186.222656 L 191.617188 186.222656 L 195.535156 222.230469 L 178.390625 222.230469 L 181.824219 185.261719 L 180.769531 185.164062 L 180.769531 186.222656 L 180.769531 185.164062 " fill-opacity="1" fill-rule="nonzero"/><path fill="#ffffff" d="M 186.582031 120.640625 C 186.582031 120.640625 210.292969 131.441406 196.632812 185.164062 C 196.632812 185.164062 194.464844 189.5 186.582031 189.5 L 186.3125 189.5 C 178.429688 189.5 176.261719 185.164062 176.261719 185.164062 C 162.601562 131.441406 186.3125 120.640625 186.3125 120.640625 L 186.582031 120.640625 " fill-opacity="1" fill-rule="nonzero"/><path fill="#4c44cb" d="M 186.582031 120.640625 L 186.140625 121.605469 L 186.390625 121.058594 L 186.136719 121.601562 L 186.140625 121.605469 L 186.390625 121.058594 L 186.136719 121.601562 L 186.171875 121.621094 C 186.558594 121.8125 189.953125 123.585938 193.261719 128.597656 C 196.566406 133.613281 199.8125 141.890625 199.816406 155.199219 C 199.816406 163.175781 198.644531 172.957031 195.605469 184.902344 L 196.632812 185.164062 L 195.683594 184.691406 L 196.09375 184.894531 L 195.691406 184.679688 L 195.683594 184.691406 L 196.09375 184.894531 L 195.691406 184.679688 C 195.679688 184.699219 195.1875 185.628906 193.820312 186.558594 C 192.453125 187.484375 190.210938 188.4375 186.582031 188.441406 L 186.3125 188.441406 C 182.566406 188.4375 180.296875 187.425781 178.941406 186.46875 C 178.269531 185.988281 177.820312 185.515625 177.546875 185.179688 C 177.410156 185.007812 177.320312 184.875 177.265625 184.789062 C 177.238281 184.746094 177.21875 184.714844 177.210938 184.695312 L 177.203125 184.679688 L 176.796875 184.898438 L 177.207031 184.691406 L 177.203125 184.679688 L 176.796875 184.898438 L 177.207031 184.691406 L 176.261719 185.164062 L 177.289062 184.902344 C 174.25 172.957031 173.074219 163.175781 173.078125 155.199219 C 173.082031 141.351562 176.597656 132.953125 180.035156 128.007812 C 181.757812 125.535156 183.464844 123.917969 184.730469 122.929688 C 185.363281 122.4375 185.882812 122.097656 186.238281 121.886719 C 186.417969 121.78125 186.550781 121.707031 186.640625 121.660156 C 186.683594 121.636719 186.71875 121.621094 186.734375 121.613281 L 186.753906 121.605469 L 186.753906 121.601562 L 186.5 121.050781 L 186.75 121.605469 L 186.753906 121.601562 L 186.5 121.050781 L 186.75 121.605469 L 186.3125 120.640625 L 186.3125 121.699219 L 186.582031 121.699219 L 186.582031 120.640625 L 186.140625 121.605469 L 186.582031 120.640625 L 186.582031 119.582031 L 186.3125 119.582031 C 186.164062 119.582031 186.007812 119.617188 185.875 119.679688 C 185.742188 119.734375 182 121.476562 178.296875 126.796875 C 174.589844 132.117188 170.957031 140.996094 170.957031 155.199219 C 170.960938 163.382812 172.160156 173.339844 175.234375 185.425781 C 175.253906 185.5 175.28125 185.570312 175.316406 185.636719 C 175.367188 185.75 176.011719 186.984375 177.71875 188.195312 C 179.417969 189.410156 182.175781 190.5625 186.3125 190.558594 L 186.582031 190.558594 C 190.714844 190.5625 193.476562 189.410156 195.175781 188.195312 C 196.878906 186.984375 197.523438 185.75 197.578125 185.636719 C 197.613281 185.570312 197.640625 185.5 197.65625 185.425781 C 200.734375 173.339844 201.933594 163.382812 201.933594 155.199219 C 201.9375 140.996094 198.300781 132.117188 194.59375 126.796875 C 190.890625 121.476562 187.148438 119.734375 187.019531 119.679688 C 186.886719 119.617188 186.726562 119.582031 186.582031 119.582031 L 186.582031 120.640625 " fill-opacity="1" fill-rule="nonzero"/><path fill="#ffffff" d="M 186.3125 120.640625 C 181.777344 123.351562 178.625 127.820312 176.347656 132.347656 C 176.347656 132.347656 188.722656 136.957031 196.21875 131.667969 C 195.710938 130.625 195.152344 129.609375 194.539062 128.628906 C 193.066406 126.28125 191.277344 124.101562 189.125 122.347656 C 188.339844 121.707031 187.5 121.085938 186.582031 120.640625 " fill-opacity="1" fill-rule="nonzero"/><path fill="#4c44cb" d="M 185.769531 119.734375 C 183.371094 121.164062 181.363281 123.046875 179.660156 125.144531 C 177.957031 127.246094 176.566406 129.558594 175.402344 131.871094 C 175.269531 132.140625 175.25 132.453125 175.363281 132.734375 C 175.472656 133.015625 175.695312 133.234375 175.976562 133.339844 C 176.011719 133.351562 177.296875 133.828125 179.292969 134.308594 C 181.296875 134.785156 184.011719 135.265625 186.910156 135.265625 C 188.574219 135.265625 190.304688 135.109375 191.996094 134.6875 C 193.679688 134.269531 195.339844 133.585938 196.832031 132.53125 C 197.253906 132.230469 197.398438 131.671875 197.171875 131.203125 C 196.648438 130.128906 196.070312 129.082031 195.433594 128.066406 C 193.917969 125.640625 192.058594 123.371094 189.796875 121.527344 C 188.980469 120.863281 188.078125 120.191406 187.042969 119.6875 C 186.511719 119.433594 185.878906 119.65625 185.625 120.183594 C 185.371094 120.710938 185.59375 121.339844 186.121094 121.59375 C 186.917969 121.976562 187.699219 122.546875 188.457031 123.164062 C 190.5 124.828125 192.21875 126.921875 193.640625 129.1875 L 193.636719 129.1875 C 194.234375 130.136719 194.777344 131.121094 195.269531 132.132812 L 196.21875 131.667969 L 195.609375 130.804688 C 194.367188 131.679688 192.964844 132.265625 191.484375 132.632812 C 190 133.003906 188.441406 133.152344 186.910156 133.148438 C 184.246094 133.152344 181.679688 132.703125 179.789062 132.25 C 178.84375 132.023438 178.070312 131.796875 177.535156 131.628906 C 177.265625 131.542969 177.058594 131.472656 176.921875 131.425781 C 176.851562 131.402344 176.800781 131.382812 176.765625 131.371094 L 176.726562 131.359375 L 176.71875 131.355469 L 176.347656 132.347656 L 177.292969 132.820312 C 178.40625 130.609375 179.726562 128.425781 181.304688 126.480469 C 182.882812 124.535156 184.714844 122.828125 186.855469 121.550781 C 187.355469 121.25 187.519531 120.601562 187.21875 120.097656 C 186.921875 119.597656 186.269531 119.433594 185.769531 119.734375 " fill-opacity="1" fill-rule="nonzero"/><path fill="#ffffff" d="M 173.035156 169.011719 C 173.035156 169.011719 156.296875 176.589844 165.527344 197.429688 C 165.527344 197.429688 165.996094 186.835938 176.046875 184.324219 C 176.046875 184.324219 173.890625 175.25 173.035156 169.011719 " fill-opacity="1" fill-rule="nonzero"/><path fill="#4c44cb" d="M 173.035156 169.011719 L 172.597656 168.042969 C 172.519531 168.082031 169.84375 169.296875 167.128906 172.113281 C 165.777344 173.515625 164.414062 175.328125 163.390625 177.585938 C 162.367188 179.847656 161.691406 182.558594 161.691406 185.71875 C 161.691406 189.210938 162.511719 193.242188 164.554688 197.859375 C 164.757812 198.308594 165.238281 198.5625 165.71875 198.472656 C 166.203125 198.378906 166.558594 197.96875 166.582031 197.476562 L 166.546875 197.476562 L 166.582031 197.476562 L 166.546875 197.476562 L 166.582031 197.476562 C 166.582031 197.398438 166.734375 194.863281 168.039062 192.136719 C 168.6875 190.769531 169.613281 189.359375 170.941406 188.152344 C 172.269531 186.945312 173.996094 185.929688 176.304688 185.351562 C 176.863281 185.210938 177.210938 184.644531 177.074219 184.082031 C 177.074219 184.082031 177.039062 183.945312 176.984375 183.683594 C 176.773438 182.78125 176.230469 180.421875 175.652344 177.617188 C 175.070312 174.8125 174.453125 171.554688 174.082031 168.867188 C 174.039062 168.535156 173.839844 168.246094 173.546875 168.082031 C 173.257812 167.925781 172.902344 167.90625 172.597656 168.042969 L 173.035156 169.011719 L 171.988281 169.152344 C 172.421875 172.324219 173.175781 176.164062 173.828125 179.226562 C 174.476562 182.289062 175.015625 184.566406 175.015625 184.570312 L 176.046875 184.324219 L 175.789062 183.296875 C 173.105469 183.96875 171.023438 185.195312 169.441406 186.65625 C 167.074219 188.847656 165.839844 191.523438 165.191406 193.632812 C 164.542969 195.75 164.472656 197.320312 164.46875 197.382812 L 165.527344 197.429688 L 166.492188 197.003906 C 164.546875 192.613281 163.808594 188.875 163.808594 185.71875 C 163.808594 182.859375 164.414062 180.464844 165.320312 178.460938 C 166.679688 175.457031 168.730469 173.320312 170.441406 171.941406 C 171.300781 171.253906 172.074219 170.753906 172.625 170.429688 C 172.898438 170.269531 173.117188 170.152344 173.265625 170.078125 C 173.339844 170.039062 173.390625 170.007812 173.429688 169.996094 L 173.464844 169.976562 L 173.472656 169.972656 L 173.378906 169.769531 L 173.472656 169.972656 L 173.378906 169.769531 L 173.472656 169.972656 L 173.035156 169.011719 L 171.988281 169.152344 L 173.035156 169.011719 " fill-opacity="1" fill-rule="nonzero"/><path fill="#ffffff" d="M 199.9375 168.421875 C 199.9375 168.421875 217.230469 176.589844 208.003906 197.429688 C 208.003906 197.429688 206.9375 186.664062 196.886719 184.15625 C 196.886719 184.15625 199.054688 176.238281 199.9375 168.421875 " fill-opacity="1" fill-rule="nonzero"/><path fill="#4c44cb" d="M 199.9375 168.421875 L 199.484375 169.382812 L 199.699219 168.929688 L 199.484375 169.378906 L 199.484375 169.382812 L 199.699219 168.929688 L 199.484375 169.378906 C 199.492188 169.382812 202.082031 170.625 204.621094 173.3125 C 205.890625 174.652344 207.148438 176.351562 208.089844 178.433594 C 209.03125 180.519531 209.652344 182.984375 209.652344 185.910156 C 209.652344 189.046875 208.925781 192.722656 207.035156 197.003906 L 208.003906 197.429688 L 209.058594 197.324219 C 209.046875 197.246094 208.769531 194.445312 207.15625 191.257812 C 206.351562 189.664062 205.203125 187.96875 203.574219 186.5 C 201.941406 185.035156 199.824219 183.796875 197.140625 183.128906 L 196.886719 184.15625 L 197.90625 184.433594 C 197.914062 184.40625 200.089844 176.464844 200.988281 168.542969 L 199.9375 168.421875 L 199.484375 169.382812 L 199.9375 168.421875 L 198.882812 168.304688 C 198.449219 172.15625 197.695312 176.058594 197.046875 178.992188 C 196.726562 180.457031 196.429688 181.683594 196.214844 182.539062 C 196.105469 182.96875 196.019531 183.300781 195.957031 183.53125 C 195.929688 183.644531 195.90625 183.730469 195.890625 183.789062 C 195.875 183.847656 195.863281 183.875 195.863281 183.875 C 195.789062 184.152344 195.828125 184.441406 195.972656 184.6875 C 196.117188 184.933594 196.351562 185.113281 196.628906 185.183594 C 198.972656 185.769531 200.757812 186.820312 202.152344 188.074219 C 204.246094 189.957031 205.464844 192.328125 206.136719 194.246094 C 206.476562 195.199219 206.683594 196.039062 206.804688 196.628906 C 206.859375 196.925781 206.898438 197.160156 206.921875 197.3125 C 206.933594 197.390625 206.941406 197.453125 206.945312 197.488281 L 206.949219 197.53125 L 206.953125 197.535156 L 207.199219 197.511719 L 206.953125 197.535156 L 207.199219 197.511719 L 206.953125 197.535156 C 206.996094 198.011719 207.363281 198.402344 207.835938 198.476562 C 208.308594 198.550781 208.78125 198.296875 208.972656 197.859375 C 210.964844 193.355469 211.773438 189.378906 211.773438 185.910156 C 211.773438 182.65625 211.0625 179.855469 209.992188 177.507812 C 208.386719 173.984375 206 171.488281 204.015625 169.867188 C 202.03125 168.246094 200.441406 167.492188 200.386719 167.464844 C 200.078125 167.320312 199.71875 167.332031 199.421875 167.5 C 199.121094 167.667969 198.921875 167.964844 198.882812 168.304688 L 199.9375 168.421875 " fill-opacity="1" fill-rule="nonzero"/><path fill="#ffffff" d="M 186.582031 120.640625 C 186.582031 120.640625 210.292969 131.441406 196.632812 185.164062 C 196.632812 185.164062 194.464844 189.5 186.582031 189.5 L 186.3125 189.5 C 178.429688 189.5 176.261719 185.164062 176.261719 185.164062 C 162.601562 131.441406 186.3125 120.640625 186.3125 120.640625 L 186.582031 120.640625 " fill-opacity="1" fill-rule="nonzero"/><path fill="#4c44cb" d="M 186.582031 120.640625 L 186.140625 121.605469 L 186.390625 121.058594 L 186.136719 121.601562 L 186.140625 121.605469 L 186.390625 121.058594 L 186.136719 121.601562 L 186.171875 121.621094 C 186.558594 121.8125 189.953125 123.585938 193.261719 128.597656 C 196.566406 133.613281 199.8125 141.890625 199.816406 155.199219 C 199.816406 163.175781 198.644531 172.957031 195.605469 184.902344 L 196.632812 185.164062 L 195.683594 184.691406 L 196.09375 184.894531 L 195.691406 184.679688 L 195.683594 184.691406 L 196.09375 184.894531 L 195.691406 184.679688 C 195.679688 184.699219 195.1875 185.628906 193.820312 186.558594 C 192.453125 187.484375 190.210938 188.4375 186.582031 188.441406 L 186.3125 188.441406 C 182.566406 188.4375 180.296875 187.425781 178.941406 186.46875 C 178.269531 185.988281 177.820312 185.515625 177.546875 185.179688 C 177.410156 185.007812 177.320312 184.875 177.265625 184.789062 C 177.238281 184.746094 177.21875 184.714844 177.210938 184.695312 L 177.203125 184.679688 L 176.796875 184.898438 L 177.207031 184.691406 L 177.203125 184.679688 L 176.796875 184.898438 L 177.207031 184.691406 L 176.261719 185.164062 L 177.289062 184.902344 C 174.25 172.957031 173.074219 163.175781 173.078125 155.199219 C 173.082031 141.351562 176.597656 132.953125 180.035156 128.007812 C 181.757812 125.535156 183.464844 123.917969 184.730469 122.929688 C 185.363281 122.4375 185.882812 122.097656 186.238281 121.886719 C 186.417969 121.78125 186.550781 121.707031 186.640625 121.660156 C 186.683594 121.636719 186.71875 121.621094 186.734375 121.613281 L 186.753906 121.605469 L 186.753906 121.601562 L 186.5 121.050781 L 186.75 121.605469 L 186.753906 121.601562 L 186.5 121.050781 L 186.75 121.605469 L 186.3125 120.640625 L 186.3125 121.699219 L 186.582031 121.699219 L 186.582031 120.640625 L 186.140625 121.605469 L 186.582031 120.640625 L 186.582031 119.582031 L 186.3125 119.582031 C 186.164062 119.582031 186.007812 119.617188 185.875 119.679688 C 185.742188 119.734375 182 121.476562 178.296875 126.796875 C 174.589844 132.117188 170.957031 140.996094 170.957031 155.199219 C 170.960938 163.382812 172.160156 173.339844 175.234375 185.425781 C 175.253906 185.5 175.28125 185.570312 175.316406 185.636719 C 175.367188 185.75 176.011719 186.984375 177.71875 188.195312 C 179.417969 189.410156 182.175781 190.5625 186.3125 190.558594 L 186.582031 190.558594 C 190.714844 190.5625 193.476562 189.410156 195.175781 188.195312 C 196.878906 186.984375 197.523438 185.75 197.578125 185.636719 C 197.613281 185.570312 197.640625 185.5 197.65625 185.425781 C 200.734375 173.339844 201.933594 163.382812 201.933594 155.199219 C 201.9375 140.996094 198.300781 132.117188 194.59375 126.796875 C 190.890625 121.476562 187.148438 119.734375 187.019531 119.679688 C 186.886719 119.617188 186.726562 119.582031 186.582031 119.582031 L 186.582031 120.640625 " fill-opacity="1" fill-rule="nonzero"/><path fill="#ffffff" d="M 186.3125 120.640625 C 181.777344 123.351562 178.625 127.820312 176.347656 132.347656 C 176.347656 132.347656 188.722656 136.957031 196.21875 131.667969 C 195.710938 130.625 195.152344 129.609375 194.539062 128.628906 C 193.066406 126.28125 191.277344 124.101562 189.125 122.347656 C 188.339844 121.707031 187.5 121.085938 186.582031 120.640625 " fill-opacity="1" fill-rule="nonzero"/><path fill="#4c44cb" d="M 185.769531 119.734375 C 183.371094 121.164062 181.363281 123.046875 179.660156 125.144531 C 177.957031 127.246094 176.566406 129.558594 175.402344 131.871094 C 175.269531 132.140625 175.25 132.453125 175.363281 132.734375 C 175.472656 133.015625 175.695312 133.234375 175.976562 133.339844 C 176.011719 133.351562 177.296875 133.828125 179.292969 134.308594 C 181.296875 134.785156 184.011719 135.265625 186.910156 135.265625 C 188.574219 135.265625 190.304688 135.109375 191.996094 134.6875 C 193.679688 134.269531 195.339844 133.585938 196.832031 132.53125 C 197.253906 132.230469 197.398438 131.671875 197.171875 131.203125 C 196.648438 130.128906 196.070312 129.082031 195.433594 128.066406 C 193.917969 125.640625 192.058594 123.371094 189.796875 121.527344 C 188.980469 120.863281 188.078125 120.191406 187.042969 119.6875 C 186.511719 119.433594 185.878906 119.65625 185.625 120.183594 C 185.371094 120.710938 185.59375 121.339844 186.121094 121.59375 C 186.917969 121.976562 187.699219 122.546875 188.457031 123.164062 C 190.5 124.828125 192.21875 126.921875 193.640625 129.1875 L 193.636719 129.1875 C 194.234375 130.136719 194.777344 131.121094 195.269531 132.132812 L 196.21875 131.667969 L 195.609375 130.804688 C 194.367188 131.679688 192.964844 132.265625 191.484375 132.632812 C 190 133.003906 188.441406 133.152344 186.910156 133.148438 C 184.246094 133.152344 181.679688 132.703125 179.789062 132.25 C 178.84375 132.023438 178.070312 131.796875 177.535156 131.628906 C 177.265625 131.542969 177.058594 131.472656 176.921875 131.425781 C 176.851562 131.402344 176.800781 131.382812 176.765625 131.371094 L 176.726562 131.359375 L 176.71875 131.355469 L 176.347656 132.347656 L 177.292969 132.820312 C 178.40625 130.609375 179.726562 128.425781 181.304688 126.480469 C 182.882812 124.535156 184.714844 122.828125 186.855469 121.550781 C 187.355469 121.25 187.519531 120.601562 187.21875 120.097656 C 186.921875 119.597656 186.269531 119.433594 185.769531 119.734375 " fill-opacity="1" fill-rule="nonzero"/><path fill="#ffffff" d="M 196.441406 150.234375 C 196.441406 155.753906 191.964844 160.230469 186.445312 160.230469 C 180.925781 160.230469 176.449219 155.753906 176.449219 150.234375 C 176.449219 144.710938 180.925781 140.238281 186.445312 140.238281 C 191.964844 140.238281 196.441406 144.710938 196.441406 150.234375 " fill-opacity="1" fill-rule="nonzero"/><path fill="#4c44cb" d="M 196.441406 150.234375 L 195.382812 150.234375 C 195.382812 152.707031 194.386719 154.933594 192.765625 156.554688 C 191.144531 158.171875 188.917969 159.171875 186.445312 159.171875 C 183.976562 159.171875 181.746094 158.171875 180.128906 156.554688 C 178.507812 154.933594 177.507812 152.707031 177.507812 150.234375 C 177.507812 147.761719 178.507812 145.535156 180.128906 143.914062 C 181.746094 142.296875 183.976562 141.296875 186.445312 141.296875 C 188.917969 141.296875 191.144531 142.296875 192.765625 143.914062 C 194.386719 145.535156 195.382812 147.761719 195.382812 150.234375 L 197.5 150.234375 C 197.5 147.183594 196.261719 144.414062 194.261719 142.417969 C 192.265625 140.417969 189.496094 139.179688 186.445312 139.179688 C 183.398438 139.179688 180.628906 140.417969 178.632812 142.417969 C 176.632812 144.414062 175.394531 147.183594 175.394531 150.234375 C 175.394531 153.285156 176.632812 156.054688 178.632812 158.050781 C 180.628906 160.050781 183.398438 161.289062 186.445312 161.289062 C 189.496094 161.289062 192.265625 160.050781 194.261719 158.050781 C 196.261719 156.054688 197.5 153.285156 197.5 150.234375 L 196.441406 150.234375 " fill-opacity="1" fill-rule="nonzero"/><path fill="#ffffff" d="M 173.035156 169.011719 C 173.035156 169.011719 156.296875 176.589844 165.527344 197.429688 C 165.527344 197.429688 165.996094 186.835938 176.046875 184.324219 C 176.046875 184.324219 173.890625 175.25 173.035156 169.011719 " fill-opacity="1" fill-rule="nonzero"/><path fill="#4c44cb" d="M 173.035156 169.011719 L 172.597656 168.042969 C 172.519531 168.082031 169.84375 169.296875 167.128906 172.113281 C 165.777344 173.515625 164.414062 175.328125 163.390625 177.585938 C 162.367188 179.847656 161.691406 182.558594 161.691406 185.71875 C 161.691406 189.210938 162.511719 193.242188 164.554688 197.859375 C 164.757812 198.308594 165.238281 198.5625 165.71875 198.472656 C 166.203125 198.378906 166.558594 197.96875 166.582031 197.476562 L 166.546875 197.476562 L 166.582031 197.476562 L 166.546875 197.476562 L 166.582031 197.476562 C 166.582031 197.398438 166.734375 194.863281 168.039062 192.136719 C 168.6875 190.769531 169.613281 189.359375 170.941406 188.152344 C 172.269531 186.945312 173.996094 185.929688 176.304688 185.351562 C 176.863281 185.210938 177.210938 184.644531 177.074219 184.082031 C 177.074219 184.082031 177.039062 183.945312 176.984375 183.683594 C 176.773438 182.78125 176.230469 180.421875 175.652344 177.617188 C 175.070312 174.8125 174.453125 171.554688 174.082031 168.867188 C 174.039062 168.535156 173.839844 168.246094 173.546875 168.082031 C 173.257812 167.925781 172.902344 167.90625 172.597656 168.042969 L 173.035156 169.011719 L 171.988281 169.152344 C 172.421875 172.324219 173.175781 176.164062 173.828125 179.226562 C 174.476562 182.289062 175.015625 184.566406 175.015625 184.570312 L 176.046875 184.324219 L 175.789062 183.296875 C 173.105469 183.96875 171.023438 185.195312 169.441406 186.65625 C 167.074219 188.847656 165.839844 191.523438 165.191406 193.632812 C 164.542969 195.75 164.472656 197.320312 164.46875 197.382812 L 165.527344 197.429688 L 166.492188 197.003906 C 164.546875 192.613281 163.808594 188.875 163.808594 185.71875 C 163.808594 182.859375 164.414062 180.464844 165.320312 178.460938 C 166.679688 175.457031 168.730469 173.320312 170.441406 171.941406 C 171.300781 171.253906 172.074219 170.753906 172.625 170.429688 C 172.898438 170.269531 173.117188 170.152344 173.265625 170.078125 C 173.339844 170.039062 173.390625 170.007812 173.429688 169.996094 L 173.464844 169.976562 L 173.472656 169.972656 L 173.378906 169.769531 L 173.472656 169.972656 L 173.378906 169.769531 L 173.472656 169.972656 L 173.035156 169.011719 L 171.988281 169.152344 L 173.035156 169.011719 " fill-opacity="1" fill-rule="nonzero"/><path fill="#ffffff" d="M 199.9375 168.421875 C 199.9375 168.421875 217.230469 176.589844 208.003906 197.429688 C 208.003906 197.429688 206.9375 186.664062 196.886719 184.15625 C 196.886719 184.15625 199.054688 176.238281 199.9375 168.421875 " fill-opacity="1" fill-rule="nonzero"/><path fill="#4c44cb" d="M 199.9375 168.421875 L 199.484375 169.382812 L 199.699219 168.929688 L 199.484375 169.378906 L 199.484375 169.382812 L 199.699219 168.929688 L 199.484375 169.378906 C 199.492188 169.382812 202.082031 170.625 204.621094 173.3125 C 205.890625 174.652344 207.148438 176.351562 208.089844 178.433594 C 209.03125 180.519531 209.652344 182.984375 209.652344 185.910156 C 209.652344 189.046875 208.925781 192.722656 207.035156 197.003906 L 208.003906 197.429688 L 209.058594 197.324219 C 209.046875 197.246094 208.769531 194.445312 207.15625 191.257812 C 206.351562 189.664062 205.203125 187.96875 203.574219 186.5 C 201.941406 185.035156 199.824219 183.796875 197.140625 183.128906 L 196.886719 184.15625 L 197.90625 184.433594 C 197.914062 184.40625 200.089844 176.464844 200.988281 168.542969 L 199.9375 168.421875 L 199.484375 169.382812 L 199.9375 168.421875 L 198.882812 168.304688 C 198.449219 172.15625 197.695312 176.058594 197.046875 178.992188 C 196.726562 180.457031 196.429688 181.683594 196.214844 182.539062 C 196.105469 182.96875 196.019531 183.300781 195.957031 183.53125 C 195.929688 183.644531 195.90625 183.730469 195.890625 183.789062 C 195.875 183.847656 195.863281 183.875 195.863281 183.875 C 195.789062 184.152344 195.828125 184.441406 195.972656 184.6875 C 196.117188 184.933594 196.351562 185.113281 196.628906 185.183594 C 198.972656 185.769531 200.757812 186.820312 202.152344 188.074219 C 204.246094 189.957031 205.464844 192.328125 206.136719 194.246094 C 206.476562 195.199219 206.683594 196.039062 206.804688 196.628906 C 206.859375 196.925781 206.898438 197.160156 206.921875 197.3125 C 206.933594 197.390625 206.941406 197.453125 206.945312 197.488281 L 206.949219 197.53125 L 206.953125 197.535156 L 207.199219 197.511719 L 206.953125 197.535156 L 207.199219 197.511719 L 206.953125 197.535156 C 206.996094 198.011719 207.363281 198.402344 207.835938 198.476562 C 208.308594 198.550781 208.78125 198.296875 208.972656 197.859375 C 210.964844 193.355469 211.773438 189.378906 211.773438 185.910156 C 211.773438 182.65625 211.0625 179.855469 209.992188 177.507812 C 208.386719 173.984375 206 171.488281 204.015625 169.867188 C 202.03125 168.246094 200.441406 167.492188 200.386719 167.464844 C 200.078125 167.320312 199.71875 167.332031 199.421875 167.5 C 199.121094 167.667969 198.921875 167.964844 198.882812 168.304688 L 199.9375 168.421875 " fill-opacity="1" fill-rule="nonzero"/><path fill="#ffffff" d="M 193.109375 150.234375 C 193.109375 153.914062 190.128906 156.898438 186.445312 156.898438 C 182.765625 156.898438 179.785156 153.914062 179.785156 150.234375 C 179.785156 146.554688 182.765625 143.570312 186.445312 143.570312 C 190.128906 143.570312 193.109375 146.554688 193.109375 150.234375 " fill-opacity="1" fill-rule="nonzero"/><path fill="#4c44cb" d="M 193.109375 150.234375 L 192.050781 150.234375 C 192.050781 151.785156 191.425781 153.179688 190.410156 154.199219 C 189.390625 155.214844 187.996094 155.839844 186.445312 155.839844 C 184.898438 155.839844 183.503906 155.214844 182.484375 154.199219 C 181.46875 153.179688 180.84375 151.785156 180.84375 150.234375 C 180.84375 148.683594 181.46875 147.289062 182.484375 146.269531 C 183.503906 145.253906 184.898438 144.628906 186.445312 144.628906 C 187.996094 144.628906 189.390625 145.257812 190.410156 146.269531 C 191.425781 147.289062 192.050781 148.683594 192.050781 150.234375 L 194.167969 150.234375 C 194.167969 148.105469 193.304688 146.167969 191.90625 144.773438 C 190.511719 143.378906 188.574219 142.511719 186.445312 142.511719 C 184.316406 142.511719 182.382812 143.378906 180.988281 144.773438 C 179.589844 146.167969 178.722656 148.105469 178.726562 150.234375 C 178.722656 152.363281 179.589844 154.300781 180.988281 155.695312 C 182.382812 157.089844 184.316406 157.953125 186.445312 157.953125 C 188.574219 157.953125 190.511719 157.089844 191.90625 155.695312 C 193.304688 154.300781 194.167969 152.363281 194.167969 150.234375 L 193.109375 150.234375 " fill-opacity="1" fill-rule="nonzero"/><path fill="#ffffff" d="M 193.109375 150.234375 C 193.109375 153.914062 190.128906 156.898438 186.445312 156.898438 C 182.765625 156.898438 179.785156 153.914062 179.785156 150.234375 C 179.785156 146.554688 182.765625 143.570312 186.445312 143.570312 C 190.128906 143.570312 193.109375 146.554688 193.109375 150.234375 " fill-opacity="1" fill-rule="nonzero"/><path fill="#4c44cb" d="M 193.109375 150.234375 L 192.050781 150.234375 C 192.050781 151.785156 191.425781 153.179688 190.410156 154.199219 C 189.390625 155.214844 187.996094 155.839844 186.445312 155.839844 C 184.898438 155.839844 183.503906 155.214844 182.484375 154.199219 C 181.46875 153.179688 180.84375 151.785156 180.84375 150.234375 C 180.84375 148.683594 181.46875 147.289062 182.484375 146.269531 C 183.503906 145.253906 184.898438 144.628906 186.445312 144.628906 C 187.996094 144.628906 189.390625 145.257812 190.410156 146.269531 C 191.425781 147.289062 192.050781 148.683594 192.050781 150.234375 L 194.167969 150.234375 C 194.167969 148.105469 193.304688 146.167969 191.90625 144.773438 C 190.511719 143.378906 188.574219 142.511719 186.445312 142.511719 C 184.316406 142.511719 182.382812 143.378906 180.988281 144.773438 C 179.589844 146.167969 178.722656 148.105469 178.726562 150.234375 C 178.722656 152.363281 179.589844 154.300781 180.988281 155.695312 C 182.382812 157.089844 184.316406 157.953125 186.445312 157.953125 C 188.574219 157.953125 190.511719 157.089844 191.90625 155.695312 C 193.304688 154.300781 194.167969 152.363281 194.167969 150.234375 L 193.109375 150.234375 " fill-opacity="1" fill-rule="nonzero"/><path fill="#ffffff" d="M 197.230469 182.75 C 197.039062 183.542969 196.839844 184.347656 196.632812 185.164062 C 196.632812 185.164062 194.464844 189.5 186.582031 189.5 L 186.3125 189.5 C 178.429688 189.5 176.261719 185.164062 176.261719 185.164062 C 176.050781 184.347656 175.855469 183.542969 175.664062 182.75 C 175.664062 182.75 185.40625 186.84375 197.230469 182.75 " fill-opacity="1" fill-rule="nonzero"/><path fill="#4c44cb" d="M 197.230469 182.75 L 196.199219 182.5 C 196.007812 183.292969 195.8125 184.09375 195.605469 184.902344 L 196.632812 185.164062 L 195.683594 184.691406 L 196.09375 184.894531 L 195.691406 184.679688 L 195.683594 184.691406 L 196.09375 184.894531 L 195.691406 184.679688 C 195.679688 184.699219 195.1875 185.628906 193.820312 186.558594 C 192.453125 187.484375 190.210938 188.4375 186.582031 188.441406 L 186.3125 188.441406 C 182.566406 188.4375 180.296875 187.425781 178.941406 186.46875 C 178.269531 185.988281 177.820312 185.515625 177.546875 185.179688 C 177.410156 185.007812 177.320312 184.875 177.265625 184.789062 C 177.238281 184.746094 177.21875 184.714844 177.210938 184.695312 L 177.203125 184.679688 L 176.796875 184.898438 L 177.207031 184.691406 L 177.203125 184.679688 L 176.796875 184.898438 L 177.207031 184.691406 L 176.261719 185.164062 L 177.289062 184.902344 C 177.078125 184.09375 176.886719 183.292969 176.695312 182.5 L 175.664062 182.75 L 175.253906 183.722656 C 175.339844 183.757812 179.792969 185.625 186.382812 185.625 C 189.675781 185.625 193.507812 185.15625 197.574219 183.746094 L 197.230469 182.75 L 196.199219 182.5 L 197.230469 182.75 L 196.882812 181.746094 C 193.066406 183.070312 189.480469 183.511719 186.382812 183.511719 C 183.289062 183.511719 180.691406 183.070312 178.878906 182.628906 C 177.972656 182.410156 177.257812 182.191406 176.777344 182.027344 C 176.539062 181.949219 176.359375 181.878906 176.238281 181.839844 C 176.179688 181.8125 176.136719 181.796875 176.109375 181.785156 L 176.082031 181.773438 L 176.074219 181.769531 L 175.976562 182.011719 L 176.074219 181.769531 L 175.976562 182.011719 L 176.074219 181.769531 C 175.707031 181.621094 175.285156 181.683594 174.980469 181.941406 C 174.675781 182.199219 174.542969 182.605469 174.632812 182.992188 C 174.828125 183.792969 175.027344 184.605469 175.234375 185.425781 C 175.253906 185.5 175.28125 185.570312 175.316406 185.636719 C 175.367188 185.75 176.011719 186.984375 177.71875 188.195312 C 179.417969 189.410156 182.175781 190.5625 186.3125 190.558594 L 186.582031 190.558594 C 190.714844 190.5625 193.476562 189.410156 195.175781 188.195312 C 196.878906 186.984375 197.523438 185.75 197.578125 185.636719 C 197.613281 185.570312 197.640625 185.5 197.65625 185.425781 C 197.863281 184.605469 198.066406 183.792969 198.257812 182.992188 C 198.347656 182.617188 198.226562 182.222656 197.9375 181.960938 C 197.652344 181.699219 197.246094 181.621094 196.882812 181.746094 L 197.230469 182.75 " fill-opacity="1" fill-rule="nonzero"/><path fill="#ffffff" d="M 187.519531 168.023438 L 185.371094 168.023438 C 185.371094 168.023438 183.441406 168.15625 183.722656 171.570312 L 185.277344 199.953125 C 185.277344 199.953125 185.601562 201.660156 186.445312 201.398438 C 187.292969 201.660156 187.617188 199.953125 187.617188 199.953125 L 189.167969 171.570312 C 189.449219 168.15625 187.519531 168.023438 187.519531 168.023438 " fill-opacity="1" fill-rule="nonzero"/><path fill="#4c44cb" d="M 187.519531 168.023438 L 187.519531 166.964844 L 185.371094 166.964844 L 185.300781 166.96875 C 185.226562 166.976562 185.035156 166.992188 184.765625 167.085938 C 184.570312 167.15625 184.324219 167.265625 184.074219 167.445312 C 183.703125 167.707031 183.320312 168.128906 183.054688 168.710938 C 182.789062 169.292969 182.636719 170.019531 182.640625 170.921875 C 182.640625 171.15625 182.644531 171.398438 182.671875 171.664062 L 183.722656 171.570312 L 182.667969 171.632812 L 184.21875 200.011719 C 184.222656 200.054688 184.230469 200.109375 184.238281 200.152344 C 184.246094 200.195312 184.320312 200.613281 184.535156 201.109375 C 184.644531 201.359375 184.789062 201.640625 185.039062 201.914062 C 185.164062 202.046875 185.324219 202.1875 185.53125 202.300781 C 185.738281 202.410156 186 202.484375 186.273438 202.484375 C 186.441406 202.484375 186.609375 202.457031 186.753906 202.410156 L 186.445312 201.398438 L 186.132812 202.410156 C 186.285156 202.457031 186.453125 202.484375 186.621094 202.484375 C 186.894531 202.484375 187.152344 202.410156 187.363281 202.300781 C 187.730469 202.101562 187.9375 201.839844 188.097656 201.605469 C 188.324219 201.246094 188.445312 200.910156 188.53125 200.636719 C 188.613281 200.371094 188.648438 200.179688 188.65625 200.152344 C 188.664062 200.109375 188.671875 200.054688 188.675781 200.011719 L 190.226562 171.632812 L 189.167969 171.570312 L 190.222656 171.660156 C 190.246094 171.398438 190.253906 171.15625 190.253906 170.921875 C 190.253906 170.121094 190.136719 169.457031 189.921875 168.910156 C 189.761719 168.5 189.546875 168.15625 189.308594 167.890625 C 188.949219 167.484375 188.546875 167.246094 188.230469 167.125 C 187.910156 167 187.671875 166.976562 187.589844 166.96875 L 187.519531 166.964844 L 187.519531 168.023438 L 187.445312 169.082031 L 187.480469 168.652344 L 187.398438 169.078125 C 187.398438 169.078125 187.410156 169.078125 187.445312 169.082031 L 187.480469 168.652344 L 187.398438 169.078125 C 187.398438 169.078125 187.445312 169.085938 187.503906 169.113281 C 187.589844 169.164062 187.714844 169.242188 187.851562 169.476562 C 187.988281 169.714844 188.136719 170.148438 188.136719 170.921875 C 188.136719 171.09375 188.132812 171.28125 188.113281 171.488281 L 188.113281 171.515625 L 186.558594 199.898438 L 187.617188 199.953125 L 186.574219 199.753906 C 186.570312 199.792969 186.5 200.101562 186.394531 200.3125 C 186.371094 200.367188 186.347656 200.40625 186.328125 200.441406 L 186.300781 200.480469 L 186.304688 200.480469 L 186.300781 200.480469 L 186.304688 200.480469 L 186.300781 200.480469 L 186.527344 200.703125 L 186.390625 200.421875 C 186.328125 200.445312 186.304688 200.476562 186.300781 200.480469 L 186.527344 200.703125 L 186.390625 200.421875 L 186.621094 200.898438 L 186.621094 200.371094 C 186.535156 200.367188 186.441406 200.390625 186.390625 200.421875 L 186.621094 200.898438 L 186.621094 200.371094 L 186.621094 200.84375 L 186.757812 200.390625 C 186.726562 200.378906 186.675781 200.371094 186.621094 200.371094 L 186.621094 200.84375 L 186.757812 200.390625 C 186.558594 200.328125 186.339844 200.324219 186.136719 200.386719 L 186.273438 200.832031 L 186.273438 200.371094 C 186.214844 200.371094 186.167969 200.378906 186.136719 200.386719 L 186.273438 200.832031 L 186.273438 200.371094 L 186.273438 200.890625 L 186.519531 200.429688 C 186.460938 200.398438 186.367188 200.367188 186.273438 200.371094 L 186.273438 200.890625 L 186.519531 200.429688 L 186.382812 200.6875 L 186.59375 200.480469 C 186.589844 200.476562 186.570312 200.453125 186.519531 200.429688 L 186.382812 200.6875 L 186.59375 200.480469 L 186.585938 200.484375 L 186.59375 200.480469 L 186.585938 200.484375 L 186.59375 200.480469 C 186.589844 200.476562 186.550781 200.421875 186.511719 200.34375 C 186.457031 200.226562 186.398438 200.066406 186.363281 199.945312 C 186.347656 199.882812 186.332031 199.828125 186.324219 199.792969 L 186.316406 199.757812 L 186.316406 199.753906 L 185.882812 199.839844 L 186.316406 199.753906 L 185.882812 199.839844 L 186.316406 199.753906 L 185.277344 199.953125 L 186.335938 199.898438 L 184.78125 171.515625 L 184.78125 171.484375 C 184.761719 171.28125 184.753906 171.097656 184.753906 170.921875 C 184.753906 170.332031 184.84375 169.9375 184.941406 169.679688 C 185.019531 169.488281 185.101562 169.371094 185.171875 169.289062 C 185.277344 169.167969 185.371094 169.121094 185.4375 169.097656 L 185.492188 169.078125 L 185.492188 169.074219 L 185.492188 169.078125 L 185.492188 169.074219 L 185.492188 169.078125 L 185.410156 168.570312 L 185.441406 169.082031 L 185.492188 169.078125 L 185.410156 168.570312 L 185.441406 169.082031 L 185.371094 168.023438 L 185.371094 169.082031 L 187.519531 169.082031 L 187.519531 168.023438 L 187.445312 169.082031 L 187.519531 168.023438 " fill-opacity="1" fill-rule="nonzero"/><path fill="#ffffff" d="M 187.519531 168.023438 L 185.371094 168.023438 C 185.371094 168.023438 183.441406 168.15625 183.722656 171.570312 L 185.277344 199.953125 C 185.277344 199.953125 185.601562 201.660156 186.445312 201.398438 C 187.292969 201.660156 187.617188 199.953125 187.617188 199.953125 L 189.167969 171.570312 C 189.449219 168.15625 187.519531 168.023438 187.519531 168.023438 " fill-opacity="1" fill-rule="nonzero"/><path fill="#4c44cb" d="M 187.519531 168.023438 L 187.519531 166.964844 L 185.371094 166.964844 L 185.300781 166.96875 C 185.226562 166.976562 185.035156 166.992188 184.765625 167.085938 C 184.570312 167.15625 184.324219 167.265625 184.074219 167.445312 C 183.703125 167.707031 183.320312 168.128906 183.054688 168.710938 C 182.789062 169.292969 182.636719 170.019531 182.640625 170.921875 C 182.640625 171.15625 182.644531 171.398438 182.671875 171.664062 L 183.722656 171.570312 L 182.667969 171.632812 L 184.21875 200.011719 C 184.222656 200.054688 184.230469 200.109375 184.238281 200.152344 C 184.246094 200.195312 184.320312 200.613281 184.535156 201.109375 C 184.644531 201.359375 184.789062 201.640625 185.039062 201.914062 C 185.164062 202.046875 185.324219 202.1875 185.53125 202.300781 C 185.738281 202.410156 186 202.484375 186.273438 202.484375 C 186.441406 202.484375 186.609375 202.457031 186.753906 202.410156 L 186.445312 201.398438 L 186.132812 202.410156 C 186.285156 202.457031 186.453125 202.484375 186.621094 202.484375 C 186.894531 202.484375 187.152344 202.410156 187.363281 202.300781 C 187.730469 202.101562 187.9375 201.839844 188.097656 201.605469 C 188.324219 201.246094 188.445312 200.910156 188.53125 200.636719 C 188.613281 200.371094 188.648438 200.179688 188.65625 200.152344 C 188.664062 200.109375 188.671875 200.054688 188.675781 200.011719 L 190.226562 171.632812 L 189.167969 171.570312 L 190.222656 171.660156 C 190.246094 171.398438 190.253906 171.15625 190.253906 170.921875 C 190.253906 170.121094 190.136719 169.457031 189.921875 168.910156 C 189.761719 168.5 189.546875 168.15625 189.308594 167.890625 C 188.949219 167.484375 188.546875 167.246094 188.230469 167.125 C 187.910156 167 187.671875 166.976562 187.589844 166.96875 L 187.519531 166.964844 L 187.519531 168.023438 L 187.445312 169.082031 L 187.480469 168.652344 L 187.398438 169.078125 C 187.398438 169.078125 187.410156 169.078125 187.445312 169.082031 L 187.480469 168.652344 L 187.398438 169.078125 C 187.398438 169.078125 187.445312 169.085938 187.503906 169.113281 C 187.589844 169.164062 187.714844 169.242188 187.851562 169.476562 C 187.988281 169.714844 188.136719 170.148438 188.136719 170.921875 C 188.136719 171.09375 188.132812 171.28125 188.113281 171.488281 L 188.113281 171.515625 L 186.558594 199.898438 L 187.617188 199.953125 L 186.574219 199.753906 C 186.570312 199.792969 186.5 200.101562 186.394531 200.3125 C 186.371094 200.367188 186.347656 200.40625 186.328125 200.441406 L 186.300781 200.480469 L 186.304688 200.480469 L 186.300781 200.480469 L 186.304688 200.480469 L 186.300781 200.480469 L 186.527344 200.703125 L 186.390625 200.421875 C 186.328125 200.445312 186.304688 200.476562 186.300781 200.480469 L 186.527344 200.703125 L 186.390625 200.421875 L 186.621094 200.898438 L 186.621094 200.371094 C 186.535156 200.367188 186.441406 200.390625 186.390625 200.421875 L 186.621094 200.898438 L 186.621094 200.371094 L 186.621094 200.84375 L 186.757812 200.390625 C 186.726562 200.378906 186.675781 200.371094 186.621094 200.371094 L 186.621094 200.84375 L 186.757812 200.390625 C 186.558594 200.328125 186.339844 200.324219 186.136719 200.386719 L 186.273438 200.832031 L 186.273438 200.371094 C 186.214844 200.371094 186.167969 200.378906 186.136719 200.386719 L 186.273438 200.832031 L 186.273438 200.371094 L 186.273438 200.890625 L 186.519531 200.429688 C 186.460938 200.398438 186.367188 200.367188 186.273438 200.371094 L 186.273438 200.890625 L 186.519531 200.429688 L 186.382812 200.6875 L 186.59375 200.480469 C 186.589844 200.476562 186.570312 200.453125 186.519531 200.429688 L 186.382812 200.6875 L 186.59375 200.480469 L 186.585938 200.484375 L 186.59375 200.480469 L 186.585938 200.484375 L 186.59375 200.480469 C 186.589844 200.476562 186.550781 200.421875 186.511719 200.34375 C 186.457031 200.226562 186.398438 200.066406 186.363281 199.945312 C 186.347656 199.882812 186.332031 199.828125 186.324219 199.792969 L 186.316406 199.757812 L 186.316406 199.753906 L 185.882812 199.839844 L 186.316406 199.753906 L 185.882812 199.839844 L 186.316406 199.753906 L 185.277344 199.953125 L 186.335938 199.898438 L 184.78125 171.515625 L 184.78125 171.484375 C 184.761719 171.28125 184.753906 171.097656 184.753906 170.921875 C 184.753906 170.332031 184.84375 169.9375 184.941406 169.679688 C 185.019531 169.488281 185.101562 169.371094 185.171875 169.289062 C 185.277344 169.167969 185.371094 169.121094 185.4375 169.097656 L 185.492188 169.078125 L 185.492188 169.074219 L 185.492188 169.078125 L 185.492188 169.074219 L 185.492188 169.078125 L 185.410156 168.570312 L 185.441406 169.082031 L 185.492188 169.078125 L 185.410156 168.570312 L 185.441406 169.082031 L 185.371094 168.023438 L 185.371094 169.082031 L 187.519531 169.082031 L 187.519531 168.023438 L 187.445312 169.082031 L 187.519531 168.023438 " fill-opacity="1" fill-rule="nonzero"/><path fill="#ffffff" d="M 216.609375 220.285156 C 215.164062 220.359375 213.808594 220.753906 212.609375 221.386719 C 212.890625 220.394531 213.015625 219.339844 212.960938 218.257812 C 212.675781 212.914062 208.117188 208.816406 202.773438 209.101562 C 201.019531 209.195312 199.394531 209.753906 198.023438 210.644531 C 197.527344 205.515625 193.066406 201.640625 187.871094 201.914062 C 183.457031 202.152344 179.890625 205.308594 178.949219 209.410156 C 177.132812 207.886719 174.757812 207.019531 172.207031 207.152344 C 166.867188 207.4375 162.765625 212 163.050781 217.339844 C 163.070312 217.742188 163.121094 218.136719 163.191406 218.53125 C 161.523438 217.4375 159.507812 216.84375 157.367188 216.957031 C 152.023438 217.238281 147.925781 221.800781 148.210938 227.140625 C 148.492188 232.480469 153.050781 236.582031 158.390625 236.300781 C 158.726562 236.28125 159.054688 236.246094 159.378906 236.195312 C 158.816406 237.511719 158.539062 238.976562 158.617188 240.507812 C 158.902344 245.847656 163.460938 249.949219 168.804688 249.664062 C 171.023438 249.546875 173.027344 248.6875 174.59375 247.34375 C 175.804688 251.589844 179.816406 254.585938 184.414062 254.34375 C 189.519531 254.070312 193.484375 249.894531 193.578125 244.863281 C 195.269531 248.15625 198.773438 250.328125 202.707031 250.117188 C 208.050781 249.835938 212.148438 245.273438 211.863281 239.933594 C 211.828125 239.21875 211.710938 238.523438 211.527344 237.859375 C 213.242188 239.074219 215.367188 239.746094 217.632812 239.625 C 222.976562 239.34375 227.074219 234.78125 226.792969 229.441406 C 226.507812 224.105469 221.949219 220 216.609375 220.285156 " fill-opacity="1" fill-rule="nonzero"/><path fill="#4c44cb" d="M 216.609375 220.285156 L 216.550781 219.230469 C 214.949219 219.3125 213.445312 219.75 212.117188 220.449219 L 212.609375 221.386719 L 213.628906 221.671875 C 213.890625 220.75 214.027344 219.773438 214.027344 218.773438 C 214.027344 218.582031 214.023438 218.390625 214.015625 218.203125 L 214.015625 218.199219 C 213.863281 215.339844 212.601562 212.789062 210.667969 210.964844 C 208.738281 209.144531 206.128906 208.027344 203.296875 208.027344 C 203.105469 208.027344 202.914062 208.03125 202.714844 208.046875 L 202.71875 208.046875 C 200.769531 208.148438 198.96875 208.769531 197.445312 209.761719 L 198.023438 210.644531 L 199.074219 210.542969 C 198.539062 205.039062 193.910156 200.84375 188.390625 200.84375 C 188.203125 200.84375 188.007812 200.847656 187.8125 200.859375 C 185.371094 200.988281 183.148438 201.933594 181.421875 203.40625 C 179.691406 204.882812 178.441406 206.894531 177.914062 209.175781 L 178.949219 209.410156 L 179.628906 208.597656 C 177.757812 207.027344 175.335938 206.082031 172.726562 206.082031 C 172.535156 206.082031 172.339844 206.085938 172.148438 206.097656 L 172.152344 206.097656 C 169.285156 206.25 166.738281 207.511719 164.914062 209.441406 C 163.089844 211.375 161.976562 213.984375 161.976562 216.820312 C 161.976562 217.007812 161.984375 217.203125 161.996094 217.402344 L 161.996094 217.394531 C 162.015625 217.847656 162.070312 218.289062 162.144531 218.71875 L 163.191406 218.53125 L 163.769531 217.644531 C 162.074219 216.53125 160.046875 215.882812 157.886719 215.882812 C 157.695312 215.882812 157.503906 215.886719 157.308594 215.902344 C 154.449219 216.050781 151.898438 217.316406 150.074219 219.246094 C 148.25 221.175781 147.136719 223.78125 147.136719 226.621094 C 147.136719 226.808594 147.140625 227.003906 147.152344 227.203125 L 147.152344 227.199219 C 147.304688 230.058594 148.566406 232.609375 150.496094 234.433594 C 152.425781 236.257812 155.035156 237.367188 157.871094 237.367188 C 158.0625 237.367188 158.253906 237.363281 158.449219 237.355469 C 158.820312 237.332031 159.183594 237.296875 159.539062 237.242188 L 159.378906 236.195312 L 158.40625 235.78125 C 157.851562 237.070312 157.546875 238.496094 157.546875 239.980469 C 157.546875 240.171875 157.550781 240.367188 157.558594 240.5625 C 157.710938 243.425781 158.976562 245.976562 160.90625 247.800781 C 162.835938 249.625 165.445312 250.738281 168.28125 250.734375 C 168.472656 250.738281 168.664062 250.730469 168.855469 250.722656 L 168.859375 250.722656 C 171.316406 250.589844 173.546875 249.632812 175.28125 248.148438 L 174.59375 247.34375 L 173.574219 247.632812 C 174.222656 249.898438 175.585938 251.847656 177.398438 253.222656 C 179.207031 254.601562 181.464844 255.417969 183.886719 255.417969 C 184.082031 255.417969 184.273438 255.414062 184.464844 255.398438 C 187.296875 255.25 189.816406 254.015625 191.632812 252.125 C 193.453125 250.230469 194.582031 247.675781 194.632812 244.886719 L 193.578125 244.863281 L 192.636719 245.347656 C 193.53125 247.09375 194.886719 248.550781 196.53125 249.578125 C 198.179688 250.601562 200.121094 251.191406 202.183594 251.191406 C 202.375 251.191406 202.570312 251.183594 202.765625 251.171875 C 205.625 251.023438 208.175781 249.761719 210 247.828125 C 211.824219 245.898438 212.933594 243.292969 212.933594 240.453125 C 212.933594 240.265625 212.929688 240.070312 212.921875 239.878906 C 212.878906 239.082031 212.75 238.308594 212.546875 237.578125 L 211.527344 237.859375 L 210.914062 238.71875 C 212.671875 239.964844 214.820312 240.699219 217.113281 240.699219 C 217.304688 240.699219 217.496094 240.695312 217.691406 240.683594 C 220.550781 240.53125 223.101562 239.269531 224.925781 237.335938 C 226.75 235.40625 227.863281 232.800781 227.863281 229.96875 C 227.863281 229.773438 227.859375 229.578125 227.847656 229.386719 C 227.695312 226.523438 226.433594 223.972656 224.5 222.148438 C 222.574219 220.324219 219.960938 219.214844 217.128906 219.214844 C 216.9375 219.214844 216.746094 219.21875 216.546875 219.230469 L 216.550781 219.230469 L 216.609375 220.285156 L 216.664062 221.339844 C 216.820312 221.335938 216.972656 221.332031 217.128906 221.332031 C 219.410156 221.332031 221.492188 222.21875 223.046875 223.6875 C 224.601562 225.160156 225.609375 227.195312 225.734375 229.496094 C 225.742188 229.652344 225.746094 229.8125 225.746094 229.96875 C 225.746094 232.242188 224.855469 234.328125 223.386719 235.882812 C 221.917969 237.433594 219.882812 238.449219 217.578125 238.566406 C 217.421875 238.578125 217.265625 238.582031 217.113281 238.582031 C 215.265625 238.582031 213.550781 237.996094 212.136719 236.996094 C 211.773438 236.738281 211.285156 236.734375 210.917969 236.992188 C 210.554688 237.25 210.386719 237.710938 210.503906 238.140625 C 210.671875 238.734375 210.773438 239.351562 210.808594 239.988281 C 210.816406 240.144531 210.820312 240.304688 210.820312 240.453125 C 210.820312 242.734375 209.929688 244.824219 208.460938 246.375 C 206.992188 247.925781 204.957031 248.9375 202.652344 249.0625 C 202.496094 249.070312 202.335938 249.074219 202.183594 249.074219 C 200.527344 249.074219 198.972656 248.601562 197.652344 247.777344 C 196.328125 246.957031 195.238281 245.78125 194.519531 244.382812 C 194.296875 243.949219 193.8125 243.726562 193.339844 243.835938 C 192.867188 243.945312 192.53125 244.359375 192.519531 244.84375 C 192.476562 247.082031 191.574219 249.132812 190.109375 250.652344 C 188.648438 252.175781 186.632812 253.164062 184.355469 253.289062 C 184.199219 253.296875 184.042969 253.300781 183.886719 253.300781 C 181.941406 253.300781 180.132812 252.648438 178.675781 251.539062 C 177.222656 250.429688 176.125 248.867188 175.609375 247.050781 C 175.507812 246.707031 175.242188 246.433594 174.894531 246.328125 C 174.550781 246.226562 174.175781 246.304688 173.902344 246.539062 C 172.503906 247.738281 170.726562 248.5 168.746094 248.609375 C 168.585938 248.613281 168.433594 248.617188 168.28125 248.621094 C 166 248.617188 163.917969 247.730469 162.359375 246.261719 C 160.808594 244.789062 159.796875 242.753906 159.675781 240.453125 L 159.675781 240.449219 C 159.667969 240.292969 159.664062 240.136719 159.664062 239.980469 C 159.664062 238.789062 159.910156 237.652344 160.351562 236.613281 C 160.503906 236.257812 160.453125 235.851562 160.214844 235.546875 C 159.980469 235.246094 159.597656 235.09375 159.21875 235.148438 C 158.929688 235.195312 158.636719 235.226562 158.335938 235.242188 L 158.339844 235.242188 C 158.179688 235.25 158.027344 235.25 157.871094 235.25 C 155.59375 235.25 153.507812 234.363281 151.953125 232.894531 C 150.398438 231.425781 149.390625 229.386719 149.265625 227.085938 L 149.265625 227.082031 C 149.257812 226.929688 149.253906 226.773438 149.253906 226.621094 C 149.253906 224.34375 150.144531 222.253906 151.613281 220.699219 C 153.082031 219.148438 155.117188 218.136719 157.421875 218.011719 C 157.578125 218.003906 157.734375 218 157.886719 218 C 159.625 218 161.242188 218.519531 162.609375 219.414062 C 162.960938 219.644531 163.417969 219.644531 163.773438 219.410156 C 164.125 219.179688 164.304688 218.753906 164.230469 218.34375 C 164.167969 217.992188 164.125 217.640625 164.109375 217.285156 L 164.109375 217.28125 C 164.097656 217.125 164.09375 216.972656 164.09375 216.820312 C 164.09375 214.539062 164.980469 212.457031 166.453125 210.898438 C 167.925781 209.34375 169.960938 208.335938 172.261719 208.210938 C 172.417969 208.203125 172.574219 208.195312 172.726562 208.195312 C 174.824219 208.195312 176.757812 208.957031 178.269531 210.222656 C 178.546875 210.457031 178.933594 210.53125 179.285156 210.417969 C 179.632812 210.300781 179.898438 210.007812 179.980469 209.652344 C 180.398438 207.824219 181.402344 206.203125 182.792969 205.019531 C 184.1875 203.828125 185.957031 203.078125 187.925781 202.972656 L 187.929688 202.972656 C 188.082031 202.960938 188.238281 202.957031 188.390625 202.957031 C 192.816406 202.957031 196.542969 206.335938 196.96875 210.746094 C 197.003906 211.117188 197.230469 211.4375 197.5625 211.597656 C 197.894531 211.761719 198.289062 211.734375 198.597656 211.535156 C 199.824219 210.738281 201.261719 210.238281 202.828125 210.160156 L 202.832031 210.160156 C 202.988281 210.148438 203.140625 210.144531 203.296875 210.144531 C 205.578125 210.144531 207.660156 211.035156 209.214844 212.503906 C 210.765625 213.972656 211.777344 216.007812 211.902344 218.316406 L 211.902344 218.3125 C 211.910156 218.464844 211.910156 218.621094 211.910156 218.773438 C 211.910156 219.578125 211.800781 220.355469 211.589844 221.101562 C 211.476562 221.507812 211.621094 221.945312 211.945312 222.210938 C 212.273438 222.472656 212.730469 222.519531 213.105469 222.324219 C 214.171875 221.757812 215.375 221.414062 216.664062 221.339844 L 216.609375 220.285156 " fill-opacity="1" fill-rule="nonzero"/><path fill="#ffffff" d="M 175.125 248.769531 C 173.078125 245.347656 173.792969 238.472656 178.664062 236.183594 " fill-opacity="1" fill-rule="nonzero"/><path fill="#4c44cb" d="M 176.035156 248.226562 C 175.460938 247.273438 175.101562 245.875 175.105469 244.382812 C 175.105469 242.9375 175.429688 241.421875 176.09375 240.132812 C 176.761719 238.84375 177.746094 237.785156 179.109375 237.140625 C 179.640625 236.890625 179.871094 236.261719 179.617188 235.730469 C 179.371094 235.203125 178.742188 234.976562 178.210938 235.222656 C 176.371094 236.085938 175.046875 237.535156 174.210938 239.164062 C 173.371094 240.804688 172.992188 242.632812 172.992188 244.382812 C 172.992188 246.195312 173.390625 247.929688 174.21875 249.3125 C 174.519531 249.8125 175.167969 249.980469 175.667969 249.679688 C 176.167969 249.375 176.335938 248.726562 176.035156 248.226562 " fill-opacity="1" fill-rule="nonzero"/><path fill="#ffffff" d="M 163.191406 218.53125 C 166.910156 220.535156 168.28125 227.589844 165.128906 230.453125 " fill-opacity="1" fill-rule="nonzero"/><path fill="#4c44cb" d="M 162.6875 219.460938 C 163.582031 219.9375 164.382812 220.855469 164.945312 222.011719 C 165.507812 223.164062 165.824219 224.539062 165.824219 225.820312 C 165.824219 226.621094 165.703125 227.386719 165.464844 228.042969 C 165.226562 228.703125 164.875 229.253906 164.417969 229.671875 C 163.984375 230.0625 163.953125 230.734375 164.347656 231.167969 C 164.738281 231.597656 165.410156 231.628906 165.84375 231.238281 C 166.589844 230.550781 167.121094 229.691406 167.457031 228.765625 C 167.789062 227.835938 167.9375 226.835938 167.941406 225.820312 C 167.9375 224.199219 167.558594 222.542969 166.84375 221.085938 C 166.136719 219.628906 165.089844 218.355469 163.691406 217.59375 C 163.175781 217.320312 162.535156 217.515625 162.257812 218.027344 C 161.980469 218.539062 162.171875 219.183594 162.6875 219.460938 " fill-opacity="1" fill-rule="nonzero"/><path fill="#ffffff" d="M 180.515625 213.964844 C 171.566406 219.621094 182.125 232.152344 188.96875 224.671875 " fill-opacity="1" fill-rule="nonzero"/><path fill="#4c44cb" d="M 179.949219 213.070312 C 178.597656 213.921875 177.605469 214.953125 176.957031 216.082031 C 176.308594 217.210938 176.015625 218.429688 176.015625 219.613281 C 176.015625 220.710938 176.265625 221.777344 176.6875 222.765625 C 177.328125 224.25 178.375 225.546875 179.664062 226.5 C 180.957031 227.445312 182.519531 228.046875 184.175781 228.046875 C 185.128906 228.046875 186.109375 227.84375 187.054688 227.40625 C 188.003906 226.96875 188.914062 226.296875 189.746094 225.386719 C 190.140625 224.957031 190.109375 224.289062 189.679688 223.890625 C 189.25 223.496094 188.578125 223.527344 188.183594 223.960938 C 187.519531 224.6875 186.835938 225.171875 186.167969 225.488281 C 185.496094 225.796875 184.832031 225.929688 184.175781 225.929688 C 183.414062 225.929688 182.660156 225.746094 181.949219 225.410156 C 180.875 224.902344 179.90625 224.042969 179.21875 223.011719 C 178.53125 221.976562 178.128906 220.78125 178.132812 219.613281 C 178.132812 218.769531 178.335938 217.9375 178.792969 217.136719 C 179.253906 216.335938 179.980469 215.554688 181.082031 214.859375 C 181.578125 214.546875 181.726562 213.890625 181.410156 213.402344 C 181.101562 212.902344 180.449219 212.757812 179.949219 213.070312 " fill-opacity="1" fill-rule="nonzero"/><path fill="#ffffff" d="M 198.5625 222.84375 C 204.863281 228.929688 195.984375 238.382812 189.96875 231.152344 " fill-opacity="1" fill-rule="nonzero"/><path fill="#4c44cb" d="M 197.824219 223.605469 C 198.5 224.253906 198.953125 224.925781 199.242188 225.59375 C 199.535156 226.261719 199.667969 226.925781 199.667969 227.578125 C 199.667969 228.921875 199.101562 230.222656 198.203125 231.171875 C 197.753906 231.644531 197.226562 232.03125 196.65625 232.296875 C 196.085938 232.554688 195.476562 232.699219 194.851562 232.699219 C 194.210938 232.699219 193.546875 232.554688 192.863281 232.207031 C 192.179688 231.859375 191.472656 231.304688 190.78125 230.472656 C 190.40625 230.023438 189.738281 229.964844 189.292969 230.335938 C 188.839844 230.710938 188.78125 231.378906 189.15625 231.828125 C 190.003906 232.84375 190.933594 233.601562 191.902344 234.09375 C 192.871094 234.589844 193.878906 234.816406 194.851562 234.816406 C 195.804688 234.816406 196.71875 234.597656 197.542969 234.214844 C 198.785156 233.640625 199.835938 232.699219 200.589844 231.550781 C 201.332031 230.402344 201.785156 229.027344 201.785156 227.578125 C 201.785156 226.644531 201.59375 225.679688 201.183594 224.746094 C 200.777344 223.8125 200.152344 222.90625 199.296875 222.082031 C 198.878906 221.675781 198.207031 221.6875 197.800781 222.105469 C 197.394531 222.527344 197.40625 223.199219 197.824219 223.605469 " fill-opacity="1" fill-rule="nonzero"/><path fill="#ffffff" d="M 203.792969 230.453125 C 203.792969 230.453125 210.300781 229.828125 211.703125 238.628906 " fill-opacity="1" fill-rule="nonzero"/><path fill="#4c44cb" d="M 203.898438 231.503906 L 203.835938 230.878906 L 203.890625 231.503906 L 203.898438 231.503906 L 203.835938 230.878906 L 203.890625 231.503906 L 203.902344 231.503906 C 203.921875 231.503906 203.980469 231.5 204.074219 231.5 C 204.320312 231.5 204.792969 231.527344 205.371094 231.667969 C 206.238281 231.878906 207.324219 232.339844 208.308594 233.378906 C 209.296875 234.421875 210.21875 236.066406 210.65625 238.792969 C 210.746094 239.371094 211.292969 239.761719 211.871094 239.671875 C 212.445312 239.582031 212.839844 239.035156 212.75 238.457031 C 212.421875 236.421875 211.832031 234.8125 211.074219 233.554688 C 209.949219 231.660156 208.453125 230.585938 207.128906 230.027344 C 205.800781 229.460938 204.644531 229.386719 204.074219 229.386719 C 203.859375 229.386719 203.722656 229.394531 203.691406 229.398438 C 203.113281 229.457031 202.6875 229.972656 202.742188 230.550781 C 202.800781 231.132812 203.316406 231.5625 203.898438 231.503906 " fill-opacity="1" fill-rule="nonzero"/><path fill="#ffffff" d="M 198.566406 210.316406 C 198.566406 210.316406 193.628906 214.152344 195.347656 220.476562 " fill-opacity="1" fill-rule="nonzero"/><path fill="#4c44cb" d="M 197.914062 209.480469 C 197.859375 209.527344 196.886719 210.285156 195.90625 211.695312 C 195.417969 212.402344 194.921875 213.273438 194.546875 214.300781 C 194.175781 215.328125 193.925781 216.515625 193.925781 217.835938 C 193.925781 218.75 194.046875 219.726562 194.328125 220.757812 C 194.476562 221.316406 195.058594 221.652344 195.625 221.496094 C 196.1875 221.34375 196.519531 220.761719 196.367188 220.199219 C 196.136719 219.351562 196.039062 218.566406 196.039062 217.835938 C 196.039062 216.785156 196.238281 215.847656 196.539062 215.023438 C 196.984375 213.785156 197.667969 212.800781 198.238281 212.132812 C 198.519531 211.800781 198.777344 211.546875 198.953125 211.382812 C 199.042969 211.296875 199.113281 211.238281 199.160156 211.199219 L 199.207031 211.15625 L 199.214844 211.148438 L 199.03125 210.917969 L 199.214844 211.152344 L 199.214844 211.148438 L 199.03125 210.917969 L 199.214844 211.152344 C 199.675781 210.792969 199.757812 210.128906 199.402344 209.667969 C 199.042969 209.207031 198.375 209.121094 197.917969 209.480469 " fill-opacity="1" fill-rule="nonzero"/></svg>